<svg aria-hidden="true" style="position: absolute; width: 0; height: 0; overflow: hidden;" version="1.1" xmlns="http://www.w3.org/2000/svg" xmlns:xlink="http://www.w3.org/1999/xlink">
<defs>
<symbol id="icon-github" viewBox="0 0 32 32">
<path d="M16 0c8.837 0 16 7.344 16 16.405 0 7.246-4.579 13.394-10.933 15.565-0.811 0.162-1.099-0.35-1.099-0.787 0-0.541 0.019-2.307 0.019-4.502 0-1.53-0.512-2.528-1.086-3.037 3.563-0.406 7.307-1.794 7.307-8.094 0-1.792-0.621-3.254-1.648-4.403 0.166-0.414 0.715-2.083-0.157-4.342 0 0-1.341-0.44-4.395 1.682-1.278-0.363-2.648-0.546-4.008-0.552-1.36 0.006-2.728 0.189-4.005 0.552-3.058-2.122-4.402-1.682-4.402-1.682-0.869 2.259-0.32 3.928-0.155 4.342-1.022 1.149-1.648 2.611-1.648 4.403 0 6.285 3.736 7.693 7.29 8.107-0.458 0.41-0.872 1.133-1.016 2.194-0.912 0.419-3.229 1.144-4.656-1.363 0 0-0.846-1.576-2.453-1.691 0 0-1.56-0.021-0.109 0.997 0 0 1.048 0.504 1.776 2.4 0 0 0.939 2.928 5.39 1.936 0.008 1.371 0.022 2.664 0.022 3.054 0 0.434-0.294 0.941-1.093 0.789-6.358-2.168-10.942-8.318-10.942-15.566 0-9.061 7.165-16.405 16-16.405z"></path>
</symbol>
<symbol id="icon-phone" viewBox="0 0 32 32">
<path d="M8.922 4.101l1.417 1.407 3.955 4.005-0.367 1.13-1.143 3.443c0.964 1.094 1.925 2.065 2.882 2.914s1.91 1.574 2.86 2.177l3.442-1.158 1.183-0.391 0.84 0.84 3.087 3.128 1.404 1.335-1.409 1.399c-1.573 1.582-3.412 2.583-5.314 2.991-1.93 0.414-3.922 0.216-5.755-0.597-2.092-0.932-4.661-2.908-6.284-4.534-1.646-1.615-3.648-3.518-4.602-5.604-0.793-1.819-0.99-3.788-0.639-5.654s1.249-3.629 2.646-5.035l1.797-1.797z"></path>
</symbol>
<symbol id="icon-person" viewBox="0 0 32 32">
<path d="M16 15.503c2.784 0 5.041-2.257 5.041-5.041s-2.257-5.042-5.041-5.042v0c-2.784 0-5.041 2.257-5.041 5.042s2.257 5.041 5.041 5.041v0zM16 17.718c-6.703 0-11 3.699-11 5.5v3.363h22v-3.363c0-2.178-4.068-5.5-11-5.5z"></path>
</symbol>
<symbol id="icon-email" viewBox="0 0 32 32">
<path d="M28.8 7.666l-12.8 11.243-12.8-11.259v-0.45h25.6v0.466zM3.2 24.8v-12.888l12.8 11.256 12.8-11.243v12.875h-25.6zM0 28h32v-24h-32v24z"></path>
</symbol>
<symbol id="icon-discord" viewBox="0 0 32 32">
<path d="M20.992 20.163c-1.511-0.099-2.699-1.349-2.699-2.877 0-0.051 0.001-0.102 0.004-0.153v0.007c-0.003-0.048-0.005-0.104-0.005-0.161 0-1.525 1.19-2.771 2.692-2.862h0.008c1.509 0.082 2.701 1.325 2.701 2.847 0 0.062-0.002 0.123-0.006 0.184v-0.008c0.003 0.050 0.005 0.109 0.005 0.168 0 1.523-1.191 2.768-2.693 2.854h-0.008zM11.026 20.163c-1.511-0.099-2.699-1.349-2.699-2.877 0-0.051 0.001-0.102 0.004-0.153v0.007c-0.003-0.048-0.005-0.104-0.005-0.161 0-1.525 1.19-2.771 2.692-2.862h0.008c1.509 0.082 2.701 1.325 2.701 2.847 0 0.062-0.002 0.123-0.006 0.184v-0.008c0.003 0.048 0.005 0.104 0.005 0.161 0 1.525-1.19 2.771-2.692 2.862h-0.008zM26.393 6.465c-1.763-0.832-3.811-1.49-5.955-1.871l-0.149-0.022c-0.005-0.001-0.011-0.002-0.017-0.002-0.035 0-0.065 0.019-0.081 0.047v0c-0.234 0.411-0.488 0.924-0.717 1.45l-0.043 0.111c-1.030-0.165-2.218-0.259-3.428-0.259s-2.398 0.094-3.557 0.275l0.129-0.017c-0.27-0.63-0.528-1.142-0.813-1.638l0.041 0.077c-0.017-0.029-0.048-0.047-0.083-0.047-0.005 0-0.011 0-0.016 0.001h0.001c-2.293 0.403-4.342 1.060-6.256 1.957l0.151-0.064c-0.017 0.007-0.031 0.019-0.040 0.034v0c-2.854 4.041-4.562 9.069-4.562 14.496 0 0.907 0.048 1.802 0.141 2.684l-0.009-0.11c0.003 0.029 0.018 0.053 0.039 0.070v0c2.14 1.601 4.628 2.891 7.313 3.738l0.176 0.048c0.008 0.003 0.018 0.004 0.028 0.004 0.032 0 0.060-0.015 0.077-0.038v0c0.535-0.72 1.044-1.536 1.485-2.392l0.047-0.1c0.006-0.012 0.010-0.027 0.010-0.043 0-0.041-0.026-0.075-0.062-0.089h-0.001c-0.912-0.352-1.683-0.727-2.417-1.157l0.077 0.042c-0.029-0.017-0.048-0.048-0.048-0.083 0-0.031 0.015-0.059 0.038-0.076v0c0.157-0.118 0.315-0.24 0.465-0.364 0.016-0.013 0.037-0.021 0.059-0.021 0.014 0 0.027 0.003 0.038 0.008h-0.001c2.208 1.061 4.8 1.681 7.536 1.681s5.329-0.62 7.643-1.727l-0.107 0.046c0.012-0.006 0.025-0.009 0.040-0.009 0.022 0 0.043 0.008 0.059 0.021v0c0.15 0.124 0.307 0.248 0.466 0.365 0.023 0.018 0.038 0.046 0.038 0.077 0 0.035-0.019 0.065-0.046 0.082v0c-0.661 0.395-1.432 0.769-2.235 1.078l-0.105 0.036c-0.036 0.014-0.062 0.049-0.062 0.089 0 0.016 0.004 0.031 0.011 0.044v-0.001c0.501 0.96 1.009 1.775 1.571 2.548l-0.040-0.057c0.017 0.024 0.046 0.040 0.077 0.040 0.010 0 0.020-0.002 0.029-0.004h-0.001c2.865-0.892 5.358-2.182 7.566-3.832l-0.065 0.047c0.022-0.016 0.036-0.041 0.039-0.069v0c0.087-0.784 0.136-1.694 0.136-2.615 0-5.415-1.712-10.43-4.623-14.534l0.052 0.078c-0.008-0.016-0.022-0.029-0.038-0.036v0z"></path>
</symbol>
<symbol id="icon-project" viewBox="0 0 32 32">
<path d="M18.994 3.96v3.2h-14.88v3.975h-4.114v16.905h32v-24.080h-11.006zM20.994 5.96h9.006v20.080h-4v-14.834h-0.013v-0.071h-19.873v-1.975l14.88 0.076z"></path>
</symbol>
<symbol id="icon-linkedin" viewBox="0 0 32 32">
<path d="M8.667 10.667c1.105 0 2-0.895 2-2s-0.895-2-2-2c-1.105 0-2 0.895-2 2s0.895 2 2 2z"></path>
<path d="M6.667 13.333c0-0.736 0.597-1.333 1.333-1.333h1.333c0.736 0 1.333 0.597 1.333 1.333v10.667c0 0.736-0.597 1.333-1.333 1.333h-1.333c-0.736 0-1.333-0.597-1.333-1.333v-10.667z"></path>
<path d="M14.667 25.333h1.333c0.736 0 1.333-0.597 1.333-1.333v-6c0-2 4-3.333 4-0.667v6.667c0 0.736 0.597 1.333 1.333 1.333h1.333c0.736 0 1.333-0.597 1.333-1.333v-8c0-2.667-2-4-4.667-4s-3.333 2-3.333 2v-0.667c0-0.736-0.597-1.333-1.333-1.333h-1.333c-0.736 0-1.333 0.597-1.333 1.333v10.667c0 0.736 0.597 1.333 1.333 1.333z"></path>
<path d="M26.667 1.333h-21.333c-2.209 0-4 1.791-4 4v21.333c0 2.209 1.791 4 4 4h21.333c2.209 0 4-1.791 4-4v-21.333c0-2.209-1.791-4-4-4zM26.667 4c0.736 0 1.333 0.597 1.333 1.333v21.333c0 0.736-0.597 1.333-1.333 1.333h-21.333c-0.736 0-1.333-0.597-1.333-1.333v-21.333c0-0.736 0.597-1.333 1.333-1.333h21.333z"></path>
</symbol>
<symbol id="icon-hamburger" viewBox="0 0 32 32">
<path d="M27.667 9.333c0 0.552-0.448 1-1 1h-21.333c-0.552 0-1-0.448-1-1s0.448-1 1-1h21.333c0.552 0 1 0.448 1 1z"></path>
<path d="M27.667 16c0 0.552-0.448 1-1 1h-21.333c-0.552 0-1-0.448-1-1s0.448-1 1-1h21.333c0.552 0 1 0.448 1 1z"></path>
<path d="M27.667 22.667c0 0.552-0.448 1-1 1h-21.333c-0.552 0-1-0.448-1-1s0.448-1 1-1h21.333c0.552 0 1 0.448 1 1z"></path>
</symbol>
</defs>
</svg>
