<svg aria-hidden="true" style="position: absolute; width: 0; height: 0; overflow: hidden;" version="1.1" xmlns="http://www.w3.org/2000/svg" xmlns:xlink="http://www.w3.org/1999/xlink">
<defs>
<symbol id="icon-github" viewBox="0 0 32 32">
<path d="M16 0c8.837 0 16 7.344 16 16.405 0 7.246-4.579 13.394-10.933 15.565-0.811 0.162-1.099-0.35-1.099-0.787 0-0.541 0.019-2.307 0.019-4.502 0-1.53-0.512-2.528-1.086-3.037 3.563-0.406 7.307-1.794 7.307-8.094 0-1.792-0.621-3.254-1.648-4.403 0.166-0.414 0.715-2.083-0.157-4.342 0 0-1.341-0.44-4.395 1.682-1.278-0.363-2.648-0.546-4.008-0.552-1.36 0.006-2.728 0.189-4.005 0.552-3.058-2.122-4.402-1.682-4.402-1.682-0.869 2.259-0.32 3.928-0.155 4.342-1.022 1.149-1.648 2.611-1.648 4.403 0 6.285 3.736 7.693 7.29 8.107-0.458 0.41-0.872 1.133-1.016 2.194-0.912 0.419-3.229 1.144-4.656-1.363 0 0-0.846-1.576-2.453-1.691 0 0-1.56-0.021-0.109 0.997 0 0 1.048 0.504 1.776 2.4 0 0 0.939 2.928 5.39 1.936 0.008 1.371 0.022 2.664 0.022 3.054 0 0.434-0.294 0.941-1.093 0.789-6.358-2.168-10.942-8.318-10.942-15.566 0-9.061 7.165-16.405 16-16.405z"></path>
</symbol>
<symbol id="icon-phone" viewBox="0 0 32 32">
<path d="M8.922 4.101l1.417 1.407 3.955 4.005-0.367 1.13-1.143 3.443c0.964 1.094 1.925 2.065 2.882 2.914s1.91 1.574 2.86 2.177l3.442-1.158 1.183-0.391 0.84 0.84 3.087 3.128 1.404 1.335-1.409 1.399c-1.573 1.582-3.412 2.583-5.314 2.991-1.93 0.414-3.922 0.216-5.755-0.597-2.092-0.932-4.661-2.908-6.284-4.534-1.646-1.615-3.648-3.518-4.602-5.604-0.793-1.819-0.99-3.788-0.639-5.654s1.249-3.629 2.646-5.035l1.797-1.797z"></path>
</symbol>
<symbol id="icon-person" viewBox="0 0 32 32">
<path d="M16 15.503c2.784 0 5.041-2.257 5.041-5.041s-2.257-5.042-5.041-5.042v0c-2.784 0-5.041 2.257-5.041 5.042s2.257 5.041 5.041 5.041v0zM16 17.718c-6.703 0-11 3.699-11 5.5v3.363h22v-3.363c0-2.178-4.068-5.5-11-5.5z"></path>
</symbol>
</defs>
</svg>
