<svg aria-hidden="true" style="position: absolute; width: 0; height: 0; overflow: hidden;" version="1.1" xmlns="http://www.w3.org/2000/svg" xmlns:xlink="http://www.w3.org/1999/xlink">
<defs>
<symbol id="icon-nextjs" viewBox="0 0 32 32">
<path d="M16 0c-8.825 0-16 7.175-16 16s7.175 16 16 16c2.8 0 5.425-0.725 7.7-1.975l-11.6-16.2v9.15h-1.7v-12.525h1.7l12.625 18.95c4.375-2.85 7.275-7.775 7.275-13.4 0-8.825-7.175-16-16-16zM21.525 21.15l-1.875-2.825v-7.875h1.875v10.7z"></path>
</symbol>
<symbol id="icon-electron" viewBox="0 0 32 32">
<path fill="#47848f" style="fill: var(--color1, #47848f)" d="M12.268 8.165c-3.592-0.655-6.43 0.030-7.563 2-0.845 1.463-0.603 3.402 0.585 5.475 0.065 0.111 0.184 0.185 0.32 0.185 0.204 0 0.369-0.165 0.369-0.369 0-0.068-0.018-0.131-0.050-0.185l0.001 0.002c-1.070-1.867-1.28-3.543-0.588-4.75 0.94-1.627 3.473-2.25 6.793-1.635 0.020 0.004 0.043 0.006 0.066 0.006 0.204 0 0.368-0.165 0.368-0.368 0-0.18-0.129-0.33-0.3-0.362l-0.002-0zM7.157 18.152c1.577 1.687 3.388 3.127 5.388 4.276l0.112 0.059c5.21 3 10.75 3.813 13.5 1.948 0.097-0.067 0.16-0.178 0.16-0.304 0-0.203-0.165-0.368-0.368-0.368-0.078 0-0.149 0.024-0.209 0.065l0.001-0.001c-2.465 1.672-7.742 0.902-12.725-1.98-2.041-1.169-3.791-2.562-5.303-4.18l-0.012-0.013c-0.068-0.074-0.165-0.12-0.272-0.12-0.204 0-0.37 0.166-0.37 0.37 0 0.097 0.037 0.184 0.098 0.25l-0-0z"></path>
<path fill="#47848f" style="fill: var(--color1, #47848f)" d="M25.265 17.703c2.352-2.777 3.172-5.572 2.043-7.527-0.83-1.44-2.587-2.2-4.922-2.23-0.204 0-0.369 0.165-0.369 0.369s0.165 0.369 0.369 0.369v0c2.1 0.027 3.613 0.682 4.295 1.863 0.938 1.625 0.205 4.117-1.968 6.685-0.054 0.064-0.087 0.147-0.087 0.238 0 0.203 0.165 0.368 0.368 0.368 0.113 0 0.213-0.050 0.281-0.13l0-0.001zM19.223 8.287c-2.482 0.573-4.673 1.469-6.668 2.658l0.105-0.058c-5.378 3.113-8.887 7.685-8.41 11.005 0.027 0.185 0.185 0.325 0.375 0.325 0.209 0 0.379-0.17 0.379-0.379 0-0.019-0.001-0.038-0.004-0.056l0 0.002c-0.442-2.948 2.883-7.285 8.027-10.258 1.829-1.098 3.948-1.969 6.199-2.498l0.151-0.030c0.167-0.037 0.291-0.184 0.291-0.36 0-0.203-0.165-0.368-0.368-0.368-0.027 0-0.054 0.003-0.080 0.009l0.002-0z"></path>
<path fill="#47848f" style="fill: var(--color1, #47848f)" d="M10.5 24.195c1.25 3.433 3.25 5.555 5.512 5.555 1.65 0 3.175-1.125 4.365-3.105 0.036-0.056 0.057-0.124 0.057-0.198 0-0.205-0.166-0.371-0.371-0.371-0.132 0-0.247 0.069-0.313 0.172l-0.001 0.002c-1.070 1.78-2.383 2.75-3.735 2.75-1.88 0-3.672-1.885-4.81-5.060-0.053-0.143-0.188-0.243-0.346-0.243-0.203 0-0.368 0.165-0.368 0.368 0 0.045 0.008 0.088 0.023 0.128l-0.001-0.003zM21.75 23.523c0.621-1.991 0.978-4.281 0.978-6.654 0-0.060-0-0.12-0.001-0.18l0 0.009c0-6.102-2.135-11.36-5.177-12.713-0.044-0.020-0.096-0.032-0.15-0.032-0.204 0-0.369 0.165-0.369 0.369 0 0.15 0.089 0.279 0.217 0.337l0.002 0.001c2.712 1.205 4.75 6.195 4.75 12.038 0 0.049 0.001 0.108 0.001 0.166 0 2.296-0.346 4.512-0.988 6.597l0.042-0.159c-0.011 0.033-0.017 0.071-0.017 0.11 0 0.203 0.165 0.368 0.368 0.368 0.164 0 0.303-0.107 0.351-0.255l0.001-0.003zM28.677 23.163c0-0.973-0.789-1.762-1.762-1.762s-1.762 0.789-1.762 1.762c0 0.973 0.789 1.762 1.762 1.762v0c0.973 0 1.762-0.789 1.762-1.762v0zM27.94 23.163c0 0.566-0.459 1.025-1.025 1.025s-1.025-0.459-1.025-1.025c0-0.566 0.459-1.025 1.025-1.025v0c0.566 0 1.025 0.459 1.025 1.025v0zM5.085 24.925c0.973 0 1.763-0.789 1.763-1.762s-0.789-1.762-1.763-1.762c-0.973 0-1.763 0.789-1.763 1.762v0c0 0.973 0.789 1.762 1.763 1.762v0zM5.085 24.188c-0.566 0-1.025-0.459-1.025-1.025s0.459-1.025 1.025-1.025c0.566 0 1.025 0.459 1.025 1.025v0c0 0.566-0.459 1.025-1.025 1.025v0z"></path>
<path fill="#47848f" style="fill: var(--color1, #47848f)" d="M16.012 5.782c0.973 0 1.762-0.789 1.762-1.763s-0.789-1.763-1.762-1.763c-0.973 0-1.762 0.789-1.762 1.763v0c0 0.973 0.789 1.763 1.762 1.763v0zM16.012 5.045c-0.566 0-1.025-0.459-1.025-1.025s0.459-1.025 1.025-1.025c0.566 0 1.025 0.459 1.025 1.025v0c0 0.566-0.459 1.025-1.025 1.025v0zM16.282 17.942c-0.084 0.020-0.18 0.031-0.278 0.031-0.704 0-1.275-0.571-1.275-1.275s0.571-1.275 1.275-1.275c0.608 0 1.117 0.426 1.244 0.996l0.002 0.009c0.018 0.081 0.029 0.175 0.029 0.271 0 0.605-0.422 1.112-0.988 1.243l-0.009 0.002z"></path>
</symbol>
<symbol id="icon-mongodb" viewBox="0 0 32 32">
<path fill="#439934" style="fill: var(--color2, #439934)" d="M22.009 10.703c0.401 1.161 0.69 2.346 0.785 3.574 0.118 1.524 0.064 3.037-0.257 4.536-0.009 0.041-0.027 0.080-0.041 0.12-0.101 0-0.203-0.012-0.302 0.003-0.832 0.131-1.664 0.266-2.495 0.401-0.86 0.139-1.72 0.273-2.578 0.422-0.304 0.052-0.68-0.010-0.803 0.41-0.003 0.012-0.038 0.014-0.059 0.020l0.041-2.513-0.042-6.063 0.401-0.069c0.655-0.107 1.31-0.216 1.965-0.32 0.782-0.124 1.565-0.245 2.348-0.366 0.345-0.054 0.691-0.103 1.037-0.155z"></path>
<path fill="#45a538" style="fill: var(--color3, #45a538)" d="M15.432 27.514c-0.422-0.363-0.86-0.71-1.265-1.093-2.179-2.055-3.773-4.475-4.558-7.392-0.216-0.803-0.361-1.619-0.407-2.448-0.033-0.581-0.079-1.166-0.039-1.744 0.109-1.536 0.331-3.057 0.782-4.537l0.025-0.034c0.044 0.058 0.107 0.11 0.129 0.175 0.44 1.295 0.876 2.591 1.31 3.888 1.364 4.075 2.727 8.151 4.094 12.225 0.027 0.079 0.096 0.145 0.146 0.216l-0.217 0.742z"></path>
<path fill="#46a037" style="fill: var(--color4, #46a037)" d="M22.009 10.703c-0.346 0.052-0.692 0.101-1.037 0.154-0.783 0.121-1.566 0.242-2.348 0.366-0.655 0.104-1.311 0.213-1.965 0.32l-0.401 0.069-0.003-0.261c-0.013-0.215-0.036-0.429-0.038-0.644-0.017-1.37-0.028-2.739-0.045-4.109-0.011-0.857-0.026-1.714-0.044-2.571-0.011-0.532-0.022-1.065-0.046-1.597-0.013-0.286-0.059-0.57-0.078-0.856-0.011-0.164 0.004-0.33 0.007-0.495 0.204 0.396 0.404 0.794 0.614 1.187 0.332 0.621 0.86 1.079 1.336 1.578 1.881 1.973 3.216 4.267 4.048 6.858z"></path>
<path fill="#409433" style="fill: var(--color5, #409433)" d="M16.259 20.188c0.020-0.006 0.055-0.009 0.059-0.020 0.123-0.421 0.499-0.358 0.803-0.41 0.858-0.148 1.719-0.282 2.578-0.422 0.831-0.135 1.663-0.27 2.495-0.401 0.099-0.015 0.201-0.003 0.302-0.003-0.155 0.555-0.278 1.122-0.475 1.662-0.224 0.612-0.495 1.21-0.783 1.796-0.463 0.929-0.992 1.731-1.604 2.46l0.015-0.019c-0.48 0.577-1.014 1.11-1.55 1.637-0.296 0.291-0.645 0.529-0.971 0.79l-0.084-0.058-0.303-0.259-0.314-0.688c-0.204-0.733-0.33-1.577-0.348-2.448l-0-0.011 0.006-0.14 0.043-0.607c0.014-0.207 0.033-0.414 0.042-0.621 0.032-0.745 0.060-1.491 0.090-2.236z"></path>
<path fill="#4faa41" style="fill: var(--color6, #4faa41)" d="M16.259 20.188c-0.029 0.745-0.058 1.491-0.089 2.237-0.009 0.207-0.028 0.414-0.042 0.621l-0.191 0.072c-0.425-1.25-0.85-2.488-1.265-3.728-0.688-2.052-1.367-4.108-2.053-6.16-2.923-9.564-3.493-11.213-4.066-12.86l2.391 7.894c-0.026-0.078-0.102-0.138-0.154-0.207l1.224-2.251c0.042 0.073 0.098 0.141 0.124 0.22-2.686-9.16-2.11-7.49-1.538-5.818l3.23 10.848c0.729 2.183 1.454 4.367 2.182 6.55 0.029 0.087 0.077 0.168 0.123 0.265l0.168-0.195-0.042 2.513z"></path>
<path fill="#4aa73c" style="fill: var(--color7, #4aa73c)" d="M10.789 8.057c0.053 0.069 0.128 0.129 0.154 0.207-1.818-6.246-1.248-4.597-0.682-2.946l2.357 7.913c0.687 2.053 1.366 4.108 2.053 6.161 0.415 1.24 0.841 2.478 1.265 3.728l0.191-0.072-0.043 0.607-0.039 0.14c-0.066 0.664-0.123 1.329-0.204 1.992-0.041 0.332-0.127 0.658-0.193 0.987-0.050-0.072-0.119-0.137-0.146-0.216-1.367-4.074-2.729-8.15-4.094-12.225-2.481-8.133-2.927-9.424-3.375-10.714l2.065 6.826c-0.022-0.066-0.085-0.117-0.129-0.175l0.818-2.21z"></path>
<path fill="#57ae47" style="fill: var(--color8, #57ae47)" d="M16.3 17.675l-0.168 0.195c-0.046-0.098-0.094-0.178-0.123-0.265-0.728-2.183-1.453-4.367-2.182-6.55-3.802-12.519-4.378-14.19-4.956-15.859l3.264 10.829c-0.026-0.079-0.082-0.147-0.124-0.22l1.514-1.991c0.048 0.064 0.116 0.12 0.14 0.192 0.42 1.23 0.837 2.462 1.251 3.694 0.387 1.151 0.768 2.304 1.159 3.453 0.026 0.077 0.117 0.132 0.178 0.197l0.003 0.261c0.015 2.021 0.029 4.042 0.043 6.063z"></path>
<path fill="#60b24f" style="fill: var(--color9, #60b24f)" d="M16.255 11.351c-0.061-0.065-0.152-0.12-0.178-0.197-0.391-1.149-0.772-2.302-1.159-3.453-0.414-1.232-0.831-2.464-1.251-3.694-0.025-0.072-0.093-0.128-0.14-0.192 0.492-0.482 0.969-0.981 1.481-1.441 0.455-0.409 0.821-0.847 0.838-1.492 0.001-0.027 0.015-0.053 0.036-0.129l0.13 0.327c-0.003 0.165-0.018 0.331-0.007 0.495 0.019 0.286 0.065 0.57 0.078 0.856 0.024 0.532 0.035 1.064 0.046 1.597 0.017 0.857 0.033 1.714 0.044 2.571 0.017 1.369 0.028 2.739 0.045 4.109 0.002 0.215 0.024 0.43 0.038 0.644z"></path>
<path fill="#a9aa88" style="fill: var(--color10, #a9aa88)" d="M15.649 26.771c0.066-0.329 0.152-0.655 0.193-0.987 0.081-0.662 0.137-1.328 0.204-1.992l0.017-0.003 0.017 0.003c0.019 0.882 0.145 1.727 0.365 2.532l-0.017-0.073c-0.044 0.058-0.106 0.11-0.13 0.175-0.182 0.512-0.353 1.029-0.536 1.541-0.025 0.070-0.095 0.125-0.143 0.186l-0.187-0.642 0.217-0.742z"></path>
<path fill="#b6b598" style="fill: var(--color11, #b6b598)" d="M15.619 28.155c0.049-0.061 0.119-0.116 0.143-0.186 0.183-0.512 0.354-1.029 0.536-1.541 0.023-0.066 0.085-0.117 0.13-0.175l0.314 0.689c-0.062 0.088-0.148 0.167-0.182 0.265l-0.601 1.765c-0.025 0.071-0.109 0.121-0.166 0.18l-0.174-0.996z"></path>
<path fill="#c2c1a7" style="fill: var(--color12, #c2c1a7)" d="M15.793 29.151c0.057-0.059 0.141-0.11 0.166-0.18l0.601-1.765c0.034-0.098 0.12-0.177 0.182-0.265l0.304 0.259c-0.147 0.145-0.228 0.313-0.179 0.524l-0.092 0.302c-0.042 0.052-0.103 0.097-0.123 0.156-0.21 0.601-0.41 1.205-0.621 1.805-0.027 0.076-0.101 0.136-0.153 0.203-0.027-0.347-0.055-0.693-0.083-1.040z"></path>
<path fill="#cecdb7" style="fill: var(--color13, #cecdb7)" d="M15.876 30.191c0.052-0.067 0.127-0.127 0.154-0.203 0.211-0.601 0.412-1.204 0.621-1.805 0.021-0.059 0.081-0.104 0.123-0.156l-0.127 1.386c-0.034 0.039-0.083 0.073-0.099 0.119-0.144 0.404-0.279 0.81-0.424 1.213-0.030 0.083-0.087 0.157-0.131 0.235-0.040-0.052-0.11-0.102-0.114-0.156-0.013-0.21-0.004-0.422-0.003-0.633z"></path>
<path fill="#dbdac7" style="fill: var(--color14, #dbdac7)" d="M15.992 30.98c0.045-0.078 0.101-0.151 0.131-0.235 0.145-0.403 0.28-0.81 0.424-1.213 0.016-0.046 0.066-0.080 0.099-0.119l0.003 0.91-0.305 0.781-0.353-0.124z"></path>
<path fill="#ebe9dc" style="fill: var(--color15, #ebe9dc)" d="M16.345 31.104l0.305-0.781 0.063 0.924-0.367-0.143z"></path>
<path fill="#cecdb7" style="fill: var(--color13, #cecdb7)" d="M16.866 27.724c-0.049-0.212 0.032-0.38 0.179-0.524l0.084 0.058-0.264 0.467z"></path>
<path fill="#4faa41" style="fill: var(--color6, #4faa41)" d="M16.079 23.793l-0.017-0.003-0.017 0.003 0.039-0.14-0.006 0.14z"></path>
</symbol>
<symbol id="icon-express" viewBox="0 0 32 32">
<path d="M31.668 24.61c-1.14 0.29-1.845 0.012-2.477-0.938-1.42-2.128-2.988-4.157-4.5-6.225-0.195-0.267-0.398-0.53-0.65-0.863-1.79 2.415-3.578 4.715-5.255 7.107-0.6 0.855-1.23 1.227-2.35 0.925l6.73-9.033-6.265-8.158c1.078-0.21 1.823-0.103 2.482 0.863 1.457 2.13 3.065 4.157 4.668 6.303 1.613-2.138 3.2-4.168 4.7-6.277 0.602-0.855 1.25-1.18 2.332-0.865-0.82 1.088-1.622 2.158-2.43 3.22-1.090 1.432-2.16 2.883-3.29 4.285-0.402 0.5-0.337 0.825 0.023 1.298 2.090 2.747 4.155 5.523 6.282 8.358zM0.333 15.435c0.18-0.902 0.3-1.822 0.55-2.707 1.5-5.357 7.65-7.585 11.875-4.265 2.475 1.947 3.090 4.692 2.967 7.787h-13.95c-0.21 5.553 3.787 8.905 8.883 7.195 1.787-0.6 2.84-2 3.367-3.75 0.268-0.878 0.71-1.015 1.535-0.765-0.422 2.19-1.38 4.020-3.38 5.165-3 1.715-7.282 1.16-9.535-1.223-1.33-1.4-1.895-3.143-2.145-5.025-0.037-0.3-0.115-0.595-0.175-0.892q0.008-0.76 0.008-1.52zM1.8 15.063h12.607c-0.082-4.015-2.582-6.867-6-6.893-3.75-0.030-6.445 2.755-6.607 6.893z"></path>
</symbol>
<symbol id="icon-nodejs" viewBox="0 0 32 32">
<path fill="#83cd29" style="fill: var(--color16, #83cd29)" d="M28.193 7.583l-11.024-6.401c-0.695-0.396-1.601-0.396-2.301 0l-11.142 6.401c-0.718 0.413-1.225 1.189-1.225 2.018v12.786c0 0.83 0.521 1.606 1.239 2.021l2.944 1.672c1.407 0.693 1.904 0.693 2.544 0.693 2.083 0 3.273-1.26 3.273-3.457v-12.623c0-0.178-0.093-0.444-0.268-0.444h-1.406c-0.178 0-0.576 0.265-0.576 0.443v12.622c0 0.974-0.881 1.943-2.527 1.12l-3.042-1.753c-0.106-0.058-0.181-0.173-0.181-0.295v-12.786c0-0.12 0.139-0.242 0.245-0.303l11.106-6.39c0.104-0.059 0.256-0.059 0.36 0l10.971 6.389c0.105 0.063 0.068 0.181 0.068 0.305v12.786c0 0.122 0.046 0.241-0.058 0.299l-11.021 6.394c-0.095 0.057-0.212 0.057-0.315 0l-2.827-1.687c-0.085-0.049-0.187-0.067-0.268-0.021-0.787 0.446-0.931 0.505-1.669 0.761-0.181 0.063-0.449 0.173 0.102 0.482l3.7 2.189c0.333 0.196 0.734 0.311 1.162 0.311h0c0.41 0 0.813-0.107 1.167-0.311l10.971-6.395c0.718-0.418 1.058-1.191 1.058-2.021v-12.786c0-0.83-0.34-1.604-1.057-2.018zM19.477 20.361c-2.931 0-3.577-0.809-3.793-2.267-0.025-0.157-0.158-0.345-0.318-0.345h-1.433c-0.177 0-0.32 0.215-0.32 0.392 0 1.866 1.015 4.128 5.863 4.128 3.51 0 5.522-1.364 5.522-3.777 0-2.393-1.617-3.021-5.020-3.471-3.441-0.455-3.79-0.684-3.79-1.491 0-0.665 0.296-1.551 2.843-1.551 2.276 0 3.115 0.489 3.46 2.023 0.029 0.144 0.161 0.248 0.31 0.248h1.439c0.088 0 0.173-0.036 0.235-0.099 0.060-0.068 0.092-0.153 0.084-0.245-0.223-2.642-1.978-3.873-5.528-3.873-3.158 0-5.041 1.334-5.041 3.569 0 2.425 1.874 3.095 4.905 3.394 3.626 0.355 3.908 0.886 3.908 1.599 0 1.239-0.994 1.767-3.327 1.767z"></path>
</symbol>
<symbol id="icon-typescript" viewBox="0 0 32 32">
<path fill="#fff" style="fill: var(--color17, #fff)" d="M5.668 11.75h24.918v18.418h-24.918z"></path>
<path fill="#007acc" style="fill: var(--color18, #007acc)" d="M0.375 15.977v15.625h31.25v-31.25h-31.25zM25.558 14.727c0.776 0.184 1.442 0.58 1.953 1.123l0.002 0.002c0.281 0.293 0.53 0.621 0.737 0.976l0.013 0.024c0 0.040-1.35 0.953-2.172 1.462-0.030 0.020-0.15-0.11-0.282-0.308-0.302-0.513-0.842-0.858-1.464-0.882l-0.003-0c-0.948-0.065-1.558 0.433-1.552 1.25-0.001 0.013-0.001 0.029-0.001 0.044 0 0.198 0.050 0.384 0.139 0.547l-0.003-0.006c0.207 0.433 0.595 0.69 1.81 1.215 2.238 0.962 3.195 1.598 3.79 2.5 0.665 1 0.813 2.615 0.363 3.81-0.5 1.3-1.725 2.183-3.457 2.475-0.327 0.040-0.706 0.062-1.090 0.062-0.455 0-0.902-0.032-1.34-0.093l0.050 0.006c-1.257-0.212-2.349-0.806-3.179-1.656l-0.001-0.001c-0.288-0.317-0.848-1.145-0.813-1.205 0.083-0.062 0.177-0.123 0.275-0.176l0.012-0.006 1.157-0.64 0.898-0.52 0.188 0.277c0.32 0.454 0.714 0.832 1.168 1.125l0.017 0.010c1 0.525 2.365 0.453 3.040-0.155 0.251-0.246 0.406-0.589 0.406-0.968 0-0.284-0.087-0.548-0.237-0.766l0.003 0.005c-0.25-0.348-0.75-0.64-2.148-1.25-1.613-0.695-2.308-1.125-2.942-1.81-0.383-0.435-0.678-0.958-0.85-1.533l-0.008-0.029c-0.070-0.352-0.11-0.756-0.11-1.17 0-0.293 0.020-0.581 0.059-0.863l-0.004 0.033c0.332-1.558 1.5-2.645 3.205-2.967 0.292-0.038 0.629-0.060 0.972-0.060 0.495 0 0.979 0.045 1.449 0.132l-0.049-0.008zM18.223 16.038v1.28h-4.058v11.557h-2.877v-11.56h-4.067v-1.25c-0.003-0.108-0.005-0.234-0.005-0.361 0-0.328 0.013-0.652 0.038-0.974l-0.003 0.043c0.020-0.023 2.5-0.023 5.5-0.023h5.457z"></path>
</symbol>
<symbol id="icon-react" viewBox="0 0 32 32">
<path fill="#61dafb" style="fill: var(--color19, #61dafb)" d="M18.85 16c0 1.574-1.276 2.85-2.85 2.85s-2.85-1.276-2.85-2.85c0-1.574 1.276-2.85 2.85-2.85s2.85 1.276 2.85 2.85z"></path>
<path fill="#61dafb" style="fill: var(--color19, #61dafb)" d="M26.825 11.3c-0.55-0.2-1.125-0.4-1.725-0.575 0.15-0.6 0.275-1.2 0.375-1.775 0.525-3.3-0.050-5.625-1.65-6.525-0.475-0.275-1-0.4-1.6-0.4-1.75 0-3.975 1.3-6.225 3.475-2.25-2.175-4.475-3.475-6.225-3.475-0.6 0-1.125 0.125-1.6 0.4-1.6 0.925-2.175 3.25-1.65 6.525 0.1 0.575 0.225 1.175 0.375 1.775-0.6 0.175-1.175 0.35-1.725 0.575-3.125 1.2-4.825 2.85-4.825 4.7s1.725 3.5 4.825 4.7c0.55 0.2 1.125 0.4 1.725 0.575-0.15 0.6-0.275 1.2-0.375 1.775-0.525 3.3 0.050 5.625 1.65 6.525 0.475 0.275 1 0.4 1.6 0.4 1.775 0 4-1.3 6.225-3.475 2.25 2.175 4.475 3.475 6.225 3.475 0.6 0 1.125-0.125 1.6-0.4 1.6-0.925 2.175-3.25 1.65-6.525-0.1-0.575-0.225-1.175-0.375-1.775 0.6-0.175 1.175-0.35 1.725-0.575 3.125-1.2 4.825-2.85 4.825-4.7s-1.7-3.5-4.825-4.7zM23.125 3.675c1.025 0.6 1.375 2.45 0.95 5.075-0.075 0.525-0.2 1.075-0.35 1.65-1.3-0.3-2.675-0.5-4.125-0.625-0.85-1.2-1.725-2.275-2.6-3.25 1.85-1.825 3.725-3.075 5.25-3.075 0.325 0 0.625 0.075 0.875 0.225zM20.325 18.5c-0.45 0.8-0.975 1.6-1.525 2.4-0.925 0.075-1.85 0.1-2.8 0.1-0.975 0-1.9-0.025-2.8-0.1-0.55-0.8-1.050-1.6-1.5-2.4-0.475-0.825-0.925-1.675-1.325-2.5 0.4-0.825 0.85-1.675 1.325-2.5 0.45-0.8 0.975-1.6 1.525-2.4 0.925-0.075 1.85-0.1 2.8-0.1 0.975 0 1.9 0.025 2.8 0.1 0.55 0.8 1.050 1.6 1.5 2.4 0.475 0.825 0.925 1.675 1.325 2.5-0.425 0.825-0.85 1.65-1.325 2.5zM22.4 17.675c0.375 0.875 0.675 1.725 0.95 2.575-0.85 0.2-1.75 0.35-2.7 0.475 0.3-0.475 0.625-0.975 0.9-1.5 0.3-0.525 0.575-1.050 0.85-1.55zM16 24.45c-0.6-0.65-1.175-1.35-1.725-2.075 0.575 0.025 1.15 0.050 1.725 0.050s1.15-0.025 1.725-0.050c-0.55 0.725-1.125 1.425-1.725 2.075zM11.35 20.7c-0.95-0.125-1.85-0.275-2.7-0.475 0.275-0.825 0.575-1.7 0.95-2.575 0.275 0.5 0.55 1.025 0.85 1.525 0.3 0.55 0.6 1.025 0.9 1.525zM9.6 14.325c-0.375-0.875-0.675-1.725-0.95-2.575 0.85-0.2 1.75-0.35 2.7-0.475-0.3 0.475-0.625 0.975-0.9 1.5-0.3 0.525-0.575 1.050-0.85 1.55zM16 7.55c0.6 0.65 1.175 1.35 1.725 2.075-0.575-0.025-1.15-0.050-1.725-0.050s-1.15 0.025-1.725 0.050c0.55-0.725 1.125-1.425 1.725-2.075zM21.55 12.8l-0.9-1.5c0.95 0.125 1.85 0.275 2.7 0.475-0.275 0.825-0.575 1.7-0.95 2.575-0.275-0.525-0.55-1.050-0.85-1.55zM7.925 8.75c-0.425-2.625-0.075-4.475 0.95-5.075 0.25-0.15 0.55-0.225 0.875-0.225 1.5 0 3.375 1.225 5.25 3.075-0.875 0.95-1.75 2.050-2.6 3.25-1.45 0.125-2.825 0.35-4.125 0.625-0.15-0.575-0.25-1.125-0.35-1.65zM1.75 16c0-1.175 1.425-2.425 3.925-3.35 0.5-0.2 1.050-0.375 1.6-0.525 0.4 1.25 0.9 2.575 1.5 3.9-0.6 1.325-1.125 2.625-1.5 3.875-3.45-1-5.525-2.5-5.525-3.9zM8.875 28.325c-1.025-0.6-1.375-2.45-0.95-5.075 0.075-0.525 0.2-1.075 0.35-1.65 1.3 0.3 2.675 0.5 4.125 0.625 0.85 1.2 1.725 2.275 2.6 3.25-1.85 1.825-3.725 3.075-5.25 3.075-0.325 0-0.625-0.075-0.875-0.225zM24.075 23.25c0.425 2.625 0.075 4.475-0.95 5.075-0.25 0.15-0.55 0.225-0.875 0.225-1.5 0-3.375-1.225-5.25-3.075 0.875-0.95 1.75-2.050 2.6-3.25 1.45-0.125 2.825-0.35 4.125-0.625 0.15 0.575 0.25 1.125 0.35 1.65zM26.325 19.35c-0.5 0.2-1.050 0.375-1.6 0.525-0.4-1.25-0.9-2.575-1.5-3.9 0.6-1.325 1.125-2.625 1.5-3.875 3.45 1 5.525 2.5 5.525 3.9 0 1.175-1.45 2.425-3.925 3.35z"></path>
</symbol>
<symbol id="icon-git" viewBox="0 0 32 32">
<path fill="#f34f29" style="fill: var(--color20, #f34f29)" d="M31.184 14.595l-13.779-13.778c-0.793-0.793-2.080-0.793-2.874 0l-2.861 2.861 3.63 3.629c0.844-0.285 1.811-0.094 2.483 0.579 0.676 0.677 0.865 1.652 0.573 2.498l3.498 3.498c0.846-0.292 1.823-0.103 2.498 0.574 0.945 0.944 0.945 2.475 0 3.42-0.438 0.438-1.042 0.709-1.71 0.709s-1.273-0.271-1.71-0.709v0c-0.437-0.438-0.708-1.042-0.708-1.71 0-0.332 0.067-0.648 0.188-0.936l-0.006 0.016-3.262-3.262-0 8.585c0.246 0.123 0.457 0.276 0.64 0.457l-0-0c0.945 0.944 0.945 2.474 0 3.421-0.945 0.944-2.476 0.944-3.42 0-0.944-0.946-0.944-2.476 0-3.421 0.22-0.221 0.484-0.399 0.776-0.522l0.016-0.006v-8.665c-0.308-0.128-0.571-0.306-0.792-0.528l-0-0c-0.716-0.715-0.888-1.765-0.521-2.644l-3.578-3.578-9.448 9.447c-0.368 0.368-0.595 0.876-0.595 1.438s0.228 1.070 0.595 1.438l13.779 13.778c0.793 0.794 2.080 0.794 2.875 0l13.715-13.715c0.368-0.368 0.595-0.876 0.595-1.438s-0.227-1.070-0.595-1.438v0z"></path>
</symbol>
<symbol id="icon-tailwind" viewBox="0 0 32 32">
<path fill="#38bdf8" style="fill: var(--color21, #38bdf8)" d="M16.001 6.401c-4.267 0-6.933 2.132-8 6.399 1.599-2.133 3.467-2.933 5.599-2.399 1.218 0.303 2.088 1.187 3.052 2.165 1.569 1.592 3.384 3.434 7.349 3.434 4.267 0 6.933-2.133 8-6.401-1.6 2.134-3.467 2.934-5.6 2.401-1.218-0.304-2.087-1.187-3.052-2.165-1.567-1.592-3.383-3.434-7.349-3.434zM8.001 16c-4.266 0-6.933 2.133-8 6.401 1.599-2.134 3.466-2.934 5.599-2.401 1.218 0.304 2.088 1.186 3.052 2.165 1.569 1.592 3.384 3.434 7.349 3.434 4.267 0 6.933-2.133 8-6.399-1.6 2.133-3.467 2.933-5.6 2.399-1.218-0.303-2.087-1.186-3.052-2.165-1.568-1.592-3.383-3.434-7.348-3.434z"></path>
</symbol>
<symbol id="icon-javascript" viewBox="0 0 32 32">
<path fill="#f0db4f" style="fill: var(--color22, #f0db4f)" d="M0.352 0.352h31.296v31.296h-31.296z"></path>
<path fill="#323330" style="fill: var(--color23, #323330)" d="M29.087 24.184c-0.229-1.428-1.16-2.627-3.918-3.745-0.958-0.44-2.026-0.756-2.344-1.482-0.113-0.422-0.128-0.66-0.056-0.916 0.205-0.83 1.196-1.089 1.981-0.851 0.506 0.169 0.985 0.559 1.273 1.181 1.351-0.875 1.348-0.869 2.291-1.47-0.345-0.535-0.529-0.782-0.756-1.011-0.812-0.907-1.919-1.374-3.689-1.339l-0.922 0.119c-0.884 0.223-1.726 0.687-2.219 1.309-1.482 1.681-1.059 4.623 0.744 5.834 1.776 1.333 4.385 1.636 4.718 2.883 0.324 1.526-1.122 2.020-2.558 1.845-1.059-0.22-1.648-0.759-2.285-1.737-1.172 0.678-1.172 0.678-2.377 1.371 0.286 0.625 0.586 0.907 1.065 1.449 2.267 2.3 7.94 2.186 8.957-1.294 0.041-0.119 0.315-0.916 0.095-2.145zM17.366 14.736h-2.927l-0.012 7.568c0 1.61 0.083 3.085-0.178 3.537-0.428 0.889-1.538 0.779-2.044 0.607-0.515-0.253-0.777-0.613-1.080-1.121-0.083-0.146-0.146-0.259-0.167-0.268l-2.38 1.457c0.396 0.812 0.979 1.517 1.726 1.975 1.116 0.669 2.615 0.875 4.183 0.515 1.021-0.297 1.901-0.913 2.362-1.85 0.666-1.229 0.523-2.716 0.517-4.361 0.015-2.684 0-5.367 0-8.059z"></path>
</symbol>
<symbol id="icon-css" viewBox="0 0 32 32">
<path fill="#1572b6" style="fill: var(--color24, #1572b6)" d="M4.704 28.531l-2.514-28.193h27.62l-2.516 28.189-11.311 3.136-11.28-3.131z"></path>
<path fill="#33a9dc" style="fill: var(--color25, #33a9dc)" d="M16 29.265l9.14-2.534 2.15-24.088h-11.29v26.622z"></path>
<path fill="#fff" style="fill: var(--color17, #fff)" d="M16 12.857h4.575l0.316-3.541h-4.892v-3.458h8.671l-0.083 0.928-0.85 9.529h-7.738v-3.458z"></path>
<path fill="#ebebeb" style="fill: var(--color26, #ebebeb)" d="M16.021 21.837l-0.015 0.005-3.851-1.040-0.246-2.758h-3.47l0.484 5.429 7.083 1.966 0.016-0.005v-3.598z"></path>
<path fill="#fff" style="fill: var(--color17, #fff)" d="M20.282 16.169l-0.416 4.631-3.857 1.041v3.598l7.088-1.965 0.052-0.584 0.602-6.72h-3.469z"></path>
<path fill="#ebebeb" style="fill: var(--color26, #ebebeb)" d="M16.012 5.859v3.458h-8.352l-0.069-0.777-0.157-1.753-0.083-0.928h8.662zM16 12.858v3.458h-3.802l-0.069-0.777-0.158-1.753-0.082-0.928h4.112z"></path>
</symbol>
<symbol id="icon-html" viewBox="0 0 32 32">
<path fill="#e44d26" style="fill: var(--color27, #e44d26)" d="M4.759 28.469l-2.501-28.054h27.484l-2.504 28.049-11.255 3.12z"></path>
<path fill="#f16529" style="fill: var(--color28, #f16529)" d="M16 29.2l9.095-2.521 2.14-23.97h-11.234z"></path>
<path fill="#ebebeb" style="fill: var(--color26, #ebebeb)" d="M16 13.114h-4.553l-0.315-3.524h4.867v-3.441h-8.628l0.082 0.923 0.845 9.482h7.7zM16 22.049l-0.015 0.004-3.832-1.035-0.245-2.744h-3.454l0.482 5.402 7.048 1.956 0.016-0.004z"></path>
<path fill="#fff" style="fill: var(--color17, #fff)" d="M15.988 13.114v3.441h4.237l-0.399 4.462-3.838 1.036v3.58l7.054-1.955 0.052-0.581 0.808-9.058 0.084-0.924h-0.927zM15.988 6.15v3.441h8.311l0.069-0.773 0.157-1.745 0.082-0.923z"></path>
</symbol>
</defs>
</svg>
